<svg xmlns="http://www.w3.org/2000/svg" viewBox="0 0 10.45 10.81"><defs><style>.cls-1{fill:#fff;}</style></defs><title>bodyAsset 3</title><g id="Layer_2" data-name="Layer 2"><g id="ARTWORK"><path class="cls-1" d="M8.65,7.07a5.09,5.09,0,0,0-1.25,0,14.38,14.38,0,0,1-4.63-.05C1.43,6.8,0,7.18,0,8.58c0,1.23,2.34,2.23,5.22,2.23s5.23-1,5.23-2.23C10.45,7.54,9.56,7.16,8.65,7.07Z"/><path class="cls-1" d="M7.34,3.44c-1.2,0-2,.23-3.65.14-.75,0-1.88.23-1.83,1.22,0,.77,1.66,1.32,3.62,1.22S9,5.22,9,4.46,8.18,3.43,7.34,3.44Z"/><path class="cls-1" d="M7,.33A1.62,1.62,0,0,0,6.67.22,4.74,4.74,0,0,0,4.25.12c-.6.24-1,.64-1,1.09,0,.69,1,1.22,2.16,1.19s2.1-.61,2.09-1.3A.91.91,0,0,0,7,.33Z"/></g></g></svg>