<svg xmlns="http://www.w3.org/2000/svg" viewBox="0 0 11.75 11.06"><defs><style>.cls-1{fill:#fff;}</style></defs><title>brainAsset 8</title><g id="Layer_2" data-name="Layer 2"><g id="ARTWORK"><path class="cls-1" d="M10,2.55a2.92,2.92,0,0,1,.9.61,2.89,2.89,0,0,1,.89,2.34,2.83,2.83,0,0,1-.34,1.27,1.79,1.79,0,0,1-1.3.91A1.91,1.91,0,0,1,9,7.59c-.09,0-.17-.08-.26-.12a.37.37,0,0,0-.55.23.37.37,0,0,0,.17.39,2.37,2.37,0,0,0,1,.34,2.84,2.84,0,0,0,1.41-.22h0l0,.2A2.42,2.42,0,0,1,9,11,2.2,2.2,0,0,1,6.53,9.92c-.11-.2-.19-.41-.28-.62a.37.37,0,0,1,0-.11V1.13A.94.94,0,0,1,6.5.54,1.51,1.51,0,0,1,7.44,0,2.15,2.15,0,0,1,8.69.19a1.29,1.29,0,0,1,.77,1.55,3.66,3.66,0,0,1-.54,1.17.35.35,0,0,0-.09.28.33.33,0,0,0,.26.31.34.34,0,0,0,.41-.15c.15-.24.28-.49.42-.74A.33.33,0,0,0,10,2.55Z"/><path class="cls-1" d="M1.78,2.56c.15.26.31.51.45.77a.4.4,0,0,0,.55.12.38.38,0,0,0,.06-.54,3.62,3.62,0,0,1-.53-1.08,1.47,1.47,0,0,1,.06-1,1.36,1.36,0,0,1,.8-.67,2,2,0,0,1,1.61,0A1.23,1.23,0,0,1,5.49,1a.59.59,0,0,1,0,.13q0,4,0,8a.68.68,0,0,1,0,.23A2.39,2.39,0,0,1,4.33,10.8,2.14,2.14,0,0,1,2.7,11,2.38,2.38,0,0,1,1,9.48,2.65,2.65,0,0,1,.84,8.26a.14.14,0,0,1,0-.06,3.53,3.53,0,0,0,.46.15,2.69,2.69,0,0,0,1.77-.12l.27-.14a.36.36,0,0,0,.14-.46.37.37,0,0,0-.45-.2L3,7.48A2,2,0,0,1,.69,7.21a2.07,2.07,0,0,1-.56-1A3.15,3.15,0,0,1,.36,3.87,3,3,0,0,1,1.78,2.56Z"/></g></g></svg>