<svg xmlns="http://www.w3.org/2000/svg" viewBox="0 0 12.91 11.1"><defs><style>.cls-1{fill:#fff;}</style></defs><title>heartAsset 7</title><g id="Layer_2" data-name="Layer 2"><g id="ARTWORK"><path class="cls-1" d="M6.46,1.93h0c0-.08-.07-.16-.12-.24A3.07,3.07,0,0,0,4,0,3.2,3.2,0,0,0,1.25.92,4.15,4.15,0,0,0,.1,3,3,3,0,0,0,0,4.14,3.73,3.73,0,0,0,.48,5.36,10.24,10.24,0,0,0,2.09,7.44a30.38,30.38,0,0,0,4.3,3.63.11.11,0,0,0,.14,0c.52-.4,1.06-.79,1.58-1.2a22.79,22.79,0,0,0,3.18-2.95A8.14,8.14,0,0,0,12.61,5a2.93,2.93,0,0,0,.3-1.27,4.09,4.09,0,0,0-.71-2.17A3.29,3.29,0,0,0,9,0,3,3,0,0,0,7.06,1a3.27,3.27,0,0,0-.6.91"/></g></g></svg>