<svg xmlns="http://www.w3.org/2000/svg" viewBox="0 0 311.66 119.6"><defs><style>.cls-1{fill:#ef5069;}.cls-2{fill:#fff;}.cls-3{fill:#52b8e8;}.cls-4{fill:#00af97;}.cls-5{fill:#f7972a;}</style></defs><title>Asset 1</title><g id="Layer_2" data-name="Layer 2"><g id="Layer_1-2" data-name="Layer 1"><circle class="cls-1" cx="100.83" cy="21.43" r="21.43"/><path class="cls-2" d="M100.85,14.27l0,0c-.1-.19-.19-.38-.29-.56a7.51,7.51,0,0,0-5.63-4,7.75,7.75,0,0,0-6.69,2.16,9.86,9.86,0,0,0-2.81,5,7.45,7.45,0,0,0-.17,2.82,8.73,8.73,0,0,0,1.1,3,25.25,25.25,0,0,0,3.91,5.06,75.12,75.12,0,0,0,10.44,8.81c.14.1.22.07.34,0,1.28-1,2.59-1.9,3.85-2.9a57,57,0,0,0,7.73-7.16,19.91,19.91,0,0,0,3.18-4.64,6.8,6.8,0,0,0,.74-3.09,9.66,9.66,0,0,0-1.73-5.28,8,8,0,0,0-7.73-3.75,7.22,7.22,0,0,0-4.75,2.42,8.21,8.21,0,0,0-1.45,2.21"/><circle class="cls-3" cx="210.83" cy="21.43" r="21.43"/><path class="cls-2" d="M210.79,19.57a1.52,1.52,0,0,1-.16.23c-.85.85-1.69,1.7-2.55,2.54a.56.56,0,0,0-.17.44c0,1.28,0,2.56,0,3.85a6.05,6.05,0,0,1-4.77,6,4.8,4.8,0,0,1-5.84-4.13,23.18,23.18,0,0,1,.61-7.78,22.84,22.84,0,0,1,6-10.58,2.32,2.32,0,0,1,4,1.61c0,2.55,0,5.11,0,7.66v.29a.53.53,0,0,0,.13-.1c.56-.55,1.11-1.11,1.67-1.65a.51.51,0,0,0,.14-.4v-12h2V17.56A.6.6,0,0,0,212,18c.57.56,1.13,1.13,1.75,1.69V11.89a2.31,2.31,0,0,1,3.16-2.23,2.19,2.19,0,0,1,.8.51,22.72,22.72,0,0,1,6.6,13.74,21.44,21.44,0,0,1,0,4.6,4.53,4.53,0,0,1-3,3.94,5.09,5.09,0,0,1-5-.76,5.87,5.87,0,0,1-2.55-5q0-2,0-3.93a.53.53,0,0,0-.16-.41c-.92-.9-1.82-1.81-2.79-2.78"/><circle class="cls-4" cx="21.43" cy="97.71" r="21.43"/><path class="cls-2" d="M31.34,90.43a7.69,7.69,0,0,1,2.19,1.48,7.07,7.07,0,0,1,2.16,5.68,7,7,0,0,1-.83,3.1,4.38,4.38,0,0,1-3.15,2.2,4.24,4.24,0,0,1-3.21-.51.9.9,0,0,0-1.35.58.86.86,0,0,0,.41.92,5.59,5.59,0,0,0,2.53.84,6.84,6.84,0,0,0,3.43-.53l.11,0c0,.17,0,.33,0,.49A5.85,5.85,0,0,1,29,110.94a5.35,5.35,0,0,1-6-2.6,13.59,13.59,0,0,1-.67-1.51.57.57,0,0,1,0-.26q0-9.79,0-19.57A2.29,2.29,0,0,1,23,85.55a3.6,3.6,0,0,1,2.27-1.22,5.12,5.12,0,0,1,3,.38,3.11,3.11,0,0,1,1.87,3.75,8.54,8.54,0,0,1-1.31,2.84,1,1,0,0,0-.23.69.9.9,0,0,0,1.64.39c.36-.59.69-1.19,1-1.79A1.26,1.26,0,0,0,31.34,90.43Z"/><path class="cls-2" d="M11.48,90.45c.38.64.75,1.25,1.11,1.87a.94.94,0,0,0,1.32.31.92.92,0,0,0,.16-1.31,8.5,8.5,0,0,1-1.28-2.64,3.4,3.4,0,0,1,.13-2.45,3.33,3.33,0,0,1,1.95-1.64,5,5,0,0,1,3.9.09,2.93,2.93,0,0,1,1.73,2,1.1,1.1,0,0,1,0,.31q0,9.76,0,19.55a1.87,1.87,0,0,1-.12.56,5.87,5.87,0,0,1-2.72,3.35,5.29,5.29,0,0,1-4,.43,5.76,5.76,0,0,1-4.17-3.63,6.2,6.2,0,0,1-.35-3,.89.89,0,0,1,0-.14c.39.12.75.27,1.13.36a6.61,6.61,0,0,0,4.3-.3,6.48,6.48,0,0,0,.64-.34.86.86,0,0,0,.35-1.12.9.9,0,0,0-1.1-.47l-.22.1a4.85,4.85,0,0,1-5.5-.65,4.9,4.9,0,0,1-1.36-2.36A7.63,7.63,0,0,1,8,93.65,7.38,7.38,0,0,1,11.48,90.45Z"/><path class="cls-5" d="M267.87,97.71a21.9,21.9,0,1,1,21.9,21.89,21.9,21.9,0,0,1-21.9-21.89Z"/><path class="cls-2" d="M298.43,102.11a14.71,14.71,0,0,0-3.29.08,37.06,37.06,0,0,1-12.21-.13c-3.54-.67-7.31.33-7.31,4,0,3.24,6.17,5.87,13.77,5.87s13.77-2.63,13.77-5.88C303.16,103.34,300.83,102.34,298.43,102.11Z"/><path class="cls-2" d="M295,92.53c-3.17,0-5.24.6-9.61.38-2-.1-5,.61-4.84,3.21.09,2,4.37,3.47,9.55,3.22s9.29-2.1,9.19-4.13C299.15,93,297.18,92.51,295,92.53Z"/><path class="cls-2" d="M293.93,84.33a4.62,4.62,0,0,0-.73-.29c-1.63-.48-4.75-.88-6.37-.25s-2.64,1.68-2.61,2.86c0,1.81,2.59,3.22,5.68,3.14s5.55-1.61,5.51-3.42A2.42,2.42,0,0,0,293.93,84.33Z"/></g></g></svg>