<svg xmlns="http://www.w3.org/2000/svg" viewBox="0 0 11.22 11.19"><defs><style>.cls-1{fill:#fff;}</style></defs><title>bodyAsset 6</title><g id="Layer_2" data-name="Layer 2"><g id="ARTWORK"><path class="cls-1" d="M5.59,5.74a.31.31,0,0,1-.07.09l-1,1a.2.2,0,0,0-.07.18V8.64a2.49,2.49,0,0,1-2,2.49A2,2,0,0,1,0,9.43a9.57,9.57,0,0,1,.25-3.2A9.39,9.39,0,0,1,2.77,1.87a.9.9,0,0,1,1-.21.88.88,0,0,1,.6.87c0,1.06,0,2.11,0,3.16v.12l0,0c.23-.23.45-.46.69-.69a.18.18,0,0,0,0-.16V0H6V4.91a.25.25,0,0,0,.07.19c.24.23.47.47.72.7V2.58a1,1,0,0,1,1.31-.92.89.89,0,0,1,.33.21,9.86,9.86,0,0,1,1.7,2.3,9.36,9.36,0,0,1,1,3.35,8.05,8.05,0,0,1,0,1.9A1.87,1.87,0,0,1,9.92,11a2.09,2.09,0,0,1-2.06-.31A2.42,2.42,0,0,1,6.8,8.67c0-.54,0-1.08,0-1.62a.22.22,0,0,0-.07-.17L5.59,5.74"/></g></g></svg>